<svg width="241.76" height="241.76" viewBox="0 0 241.76 241.76" fill="currentColor" xmlns="http://www.w3.org/2000/svg">
  <g transform="translate(-12.451,-12.451)">
    <path
      d="m47.807 180.37c0 2.73-1.264 5.332-3.665 7.379-2.695 2.297-7.003 3.915-11.905 3.915s-9.211-1.618-11.905-3.915c-2.401-2.047-3.665-4.649-3.665-7.379s1.264-5.333 3.665-7.379c2.694-2.297 7.003-3.915 11.905-3.915 2.637 0 5.102 0.468 7.237 1.258v-30.784c0-1.5 0.805-2.884 2.109-3.624s2.905-0.723 4.192 0.045l10.527 6.281c1.974 1.179 2.621 3.739 1.443 5.713-1.179 1.975-3.739 2.622-5.713 1.443l-4.225-2.52zm-8.333 0c0-0.665-0.686-1.069-1.384-1.506-1.495-0.934-3.574-1.455-5.853-1.455s-4.359 0.521-5.854 1.455c-0.698 0.437-1.383 0.841-1.383 1.506s0.685 1.069 1.383 1.505c1.495 0.935 3.575 1.455 5.854 1.455s4.358-0.52 5.853-1.455c0.698-0.436 1.384-0.84 1.384-1.505zm56.219-47.886c0 2.73-1.264 5.333-3.665 7.379-2.695 2.297-7.003 3.915-11.905 3.915s-9.211-1.618-11.905-3.915c-2.401-2.046-3.665-4.649-3.665-7.379s1.264-5.333 3.665-7.379c2.694-2.297 7.003-3.915 11.905-3.915 2.637 0 5.102 0.468 7.237 1.258v-30.784c0-1.5 0.805-2.883 2.109-3.624 1.304-0.74 2.905-0.723 4.192 0.046l10.526 6.28c1.975 1.179 2.622 3.739 1.444 5.713-1.179 1.975-3.739 2.622-5.713 1.444l-4.225-2.521zm-8.333 0c0-0.665-0.686-1.069-1.384-1.505-1.495-0.935-3.574-1.456-5.853-1.456-2.28 0-4.359 0.521-5.854 1.456-0.698 0.436-1.383 0.84-1.383 1.505s0.685 1.069 1.383 1.505c1.495 0.935 3.574 1.455 5.854 1.455 2.279 0 4.358-0.52 5.853-1.455 0.698-0.436 1.384-0.84 1.384-1.505zm56.219-47.886c0 2.73-1.265 5.333-3.665 7.379-2.695 2.297-7.003 3.915-11.905 3.915-4.903 0-9.211-1.618-11.906-3.915-2.4-2.046-3.665-4.649-3.665-7.379s1.265-5.332 3.665-7.379c2.695-2.297 7.003-3.915 11.906-3.915 2.637 0 5.102 0.468 7.236 1.259v-30.785c0-1.499 0.806-2.883 2.11-3.623 1.303-0.741 2.904-0.724 4.192 0.045l10.526 6.281c1.975 1.178 2.622 3.738 1.443 5.713-1.178 1.974-3.738 2.621-5.713 1.443l-4.224-2.521zm-8.334 0c0-0.665-0.685-1.069-1.383-1.505-1.495-0.935-3.574-1.455-5.853-1.455-2.28 0-4.359 0.52-5.854 1.455-0.698 0.436-1.383 0.84-1.383 1.505s0.685 1.069 1.383 1.506c1.495 0.934 3.574 1.455 5.854 1.455 2.279 0 4.358-0.521 5.853-1.455 0.698-0.437 1.383-0.841 1.383-1.506zm118.97-67.934v233.33c0 2.328-1.887 4.215-4.215 4.215h-233.33c-2.328 0-4.216-1.887-4.216-4.215v-45.833c0-2.328 1.888-4.216 4.216-4.216h45.784v-41.618c0-2.328 1.888-4.215 4.216-4.215h41.618v-45.785c0-2.328 1.887-4.215 4.215-4.215h41.618v-41.618c0-2.328 1.887-4.215 4.215-4.215h41.618v-41.618c0-2.328 1.888-4.216 4.216-4.216h45.833c2.328 0 4.215 1.888 4.215 4.216zm-8.43 145.88h-174.9v36.569h174.9zm-87.452-50h-41.618v41.569h129.07v-41.569zm87.452-45.834h-83.236v37.403h83.236zm0-8.43v-37.403h-37.403v37.403zm0 150.1h-224.9v37.403h224.9z" />
  </g>
</svg>